<svg xmlns="http://www.w3.org/2000/svg" xmlns:xlink="http://www.w3.org/1999/xlink" version="1.1" x="0px" y="0px" viewBox="0 0 512 640" enable-background="new 0 0 512 512" xml:space="preserve"><path d="M403.828,192.492l96.812-96.828C507.969,88.352,512,78.602,512,68.242s-4.031-20.094-11.359-27.422  c-14.625-14.625-40.172-14.625-54.812,0l-96.844,96.812H23.938C10.734,137.633,0,148.383,0,161.602v296.625  c0,13.188,10.734,23.922,23.938,23.922h355.953c13.188,0,23.938-10.734,23.938-23.922V192.492z M385.609,463.945H18.211V155.883  h312.57l-79.844,79.812c-1.719,1.719-2.672,4-2.688,6.406l0.016,41.672c-0.047,2.641,0.906,4.984,2.688,6.766  c1.688,1.719,3.969,2.656,6.422,2.656l42.062,0.031c2.234-0.031,4.391-0.875,6.047-2.406l0.281-0.281l79.844-79.844V463.945z   M295.547,274.992h-29.062l-0.031-29.047l192.25-192.219c5.188-5.25,11.328-6.031,14.531-6.031c3.188,0,9.328,0.781,14.531,6.031  c8.016,8,8.016,21.031,0,29.031L295.547,274.992z"/><text x="0" y="527" fill="#000000" font-size="5px" font-weight="bold" font-family="'Helvetica Neue', Helvetica, Arial-Unicode, Arial, Sans-serif">Created by lastspark</text><text x="0" y="532" fill="#000000" font-size="5px" font-weight="bold" font-family="'Helvetica Neue', Helvetica, Arial-Unicode, Arial, Sans-serif">from the Noun Project</text></svg>